<?xml version="1.0" encoding="UTF-8"?>
<svg version="1.1" xmlns="http://www.w3.org/2000/svg" width="759" height="116">
<path d="M0 0 C11.54890825 8.56175894 18.53536126 20.85241918 21 35 C22.45804836 54.61225879 19.70587745 69.91773585 6.75 85.25 C-3.16299826 95.84379043 -16.72047702 100.94044635 -31 102 C-47.65443771 102.16803805 -61.67691369 97.15451478 -73.8125 85.6875 C-84.84678767 74.00297752 -89.44637122 59.00511226 -89.20703125 43.078125 C-88.14358996 27.26696012 -81.91357697 12.63848167 -70 2 C-49.81244023 -13.54502006 -20.90429686 -15.14011029 0 0 Z M-55.47265625 24.8203125 C-61.31547549 33.50788629 -61.90406414 42.76147363 -61 53 C-59.43699749 60.05127269 -56.61679398 66.30441141 -51 71 C-43.52857273 75.635971 -36.73647625 76.74579675 -28 76 C-20.8382182 74.32082517 -15.3751637 70.93439757 -11 65 C-5.68104532 55.69182931 -4.68476179 45.80133523 -7.125 35.4375 C-9.27904025 28.18285502 -13.5335741 22.06031394 -20 18 C-32.0936074 12.53302679 -46.73754189 14.02306239 -55.47265625 24.8203125 Z " fill="#000000" transform="translate(89,14)"/>
<path d="M0 0 C3.0625 2.5625 3.0625 2.5625 6.0625 6.5625 C6.3925 2.9325 6.7225 -0.6975 7.0625 -4.4375 C15.9725 -4.4375 24.8825 -4.4375 34.0625 -4.4375 C34.0625 24.2725 34.0625 52.9825 34.0625 82.5625 C25.1525 82.5625 16.2425 82.5625 7.0625 82.5625 C6.7325 78.9325 6.4025 75.3025 6.0625 71.5625 C5.093125 72.635 4.12375 73.7075 3.125 74.8125 C-3.283321 81.14392115 -10.05602163 83.14249476 -18.95703125 83.59375 C-28.25901316 83.49621939 -37.07409978 80.79561718 -44.16796875 74.62109375 C-54.39095582 63.89942438 -57.29477376 51.00895075 -57.24243164 36.60473633 C-56.92792645 23.8725429 -52.9780275 13.03022963 -44.35546875 3.6796875 C-32.2166825 -6.94910434 -13.59831964 -9.23659447 0 0 Z M-25.3125 25 C-29.51183473 31.62202784 -29.68935899 37.87683031 -28.9375 45.5625 C-27.38653109 50.89447959 -24.73915749 54.65917222 -19.9375 57.5625 C-14.71189259 59.63302369 -10.31395534 60.0736015 -4.9375 58.5625 C1.16921418 55.27426929 4.83639619 51.10705412 7.0625 44.5625 C7.81628958 37.92523586 7.42673299 32.36290171 4.0625 26.5625 C-0.17413151 21.38439482 -4.73715799 18.96981626 -11.375 18.125 C-17.09542367 18.82750817 -21.28773247 20.86931753 -25.3125 25 Z " fill="#000000" transform="translate(528.9375,32.4375)"/>
<path d="M0 0 C9.88576349 8.23813624 13.1736754 14.12557856 14.625 27.1875 C5.055 27.1875 -4.515 27.1875 -14.375 27.1875 C-15.695 24.5475 -17.015 21.9075 -18.375 19.1875 C-21.90302532 16.60028143 -23.68764253 16.16419975 -28.0625 16.3125 C-31.97356642 17.27109765 -31.97356642 17.27109765 -34.375 20.1875 C-35.42768706 23.6463289 -35.7450599 25.39974873 -34.19140625 28.70703125 C-28.76796366 36.11323779 -15.7553656 39.12965448 -7.40649414 42.29614258 C2.97237133 46.3006828 10.42813401 52.1335631 15.625 62.1875 C18.3645438 70.26829272 17.54768126 80.3169617 13.93359375 87.9453125 C8.51619543 97.22766066 0.99941022 102.04239676 -9.2890625 105.03515625 C-23.71876835 107.97165973 -38.63275027 105.84443978 -51.05078125 97.91015625 C-57.84462549 92.87471876 -62.36692262 86.45678759 -64.375 78.1875 C-64.375 75.8775 -64.375 73.5675 -64.375 71.1875 C-55.135 71.1875 -45.895 71.1875 -36.375 71.1875 C-35.055 73.8275 -33.735 76.4675 -32.375 79.1875 C-28.80965378 82.75284622 -27.4535022 83.08312882 -22.5 83.5625 C-19.09468314 83.50595415 -18.35780489 83.17567836 -15.375 81.125 C-12.84524867 77.40942774 -12.5871872 75.5992517 -13.375 71.1875 C-18.22524818 64.16300264 -27.64262474 61.79462627 -35.35473633 59.00585938 C-47.12668032 54.73368277 -56.61008056 50.23857078 -63.1875 39.125 C-66.53081353 30.85469811 -66.21752086 21.97316109 -63.40234375 13.60546875 C-59.53619307 4.50604948 -52.84078252 -0.04889941 -43.953125 -3.84765625 C-29.81543351 -8.56753773 -13.00811358 -6.98583877 0 0 Z " fill="#000000" transform="translate(383.375,9.8125)"/>
<path d="M0 0 C8.91 0 17.82 0 27 0 C27.33 19.47 27.66 38.94 28 59 C37.56285398 46.19310148 37.56285398 46.19310148 46.33984375 32.859375 C49.03156931 29.2820412 50.30209446 28.17334447 54.68798828 27.08398438 C59.00597587 26.68008346 63.24678558 26.94700912 67.5625 27.25 C69.06293615 27.31029623 70.56360663 27.36503125 72.06445312 27.4140625 C75.71456413 27.54530684 79.35576142 27.75168113 83 28 C81.70891619 30.76655418 80.2935196 33.04962067 78.34765625 35.3984375 C77.82381348 36.03579834 77.2999707 36.67315918 76.76025391 37.32983398 C75.91986572 38.34219116 75.91986572 38.34219116 75.0625 39.375 C73.88319353 40.81044171 72.70482469 42.24665419 71.52734375 43.68359375 C70.93550293 44.40530762 70.34366211 45.12702148 69.73388672 45.87060547 C67.1606661 49.03078995 64.63712264 52.22864892 62.125 55.4375 C61.67737305 56.00919922 61.22974609 56.58089844 60.76855469 57.16992188 C59.51087375 58.77877955 58.25538735 60.38935201 57 62 C56.26136719 62.94746094 55.52273438 63.89492188 54.76171875 64.87109375 C53.17250785 66.91254503 51.58495589 68.95524463 50 71 C52.78068497 75.33631292 55.81474098 79.29053965 59.1875 83.1875 C60.16868636 84.33402168 61.14914452 85.48116691 62.12890625 86.62890625 C62.61375488 87.19625488 63.09860352 87.76360352 63.59814453 88.34814453 C66.37671747 91.62223448 69.08166407 94.95612797 71.7890625 98.2890625 C73.35567782 100.20996539 74.93513633 102.1204265 76.5234375 104.0234375 C77.34070313 105.00570312 78.15796875 105.98796875 79 107 C79.7425 107.886875 80.485 108.77375 81.25 109.6875 C83 112 83 112 84 115 C55.85958816 117.67416194 55.85958816 117.67416194 48.43652344 113.58935547 C44.5218878 109.88154208 42.33254986 105.30319982 40.16699219 100.42626953 C38.17101574 96.27647581 35.42604856 92.66806989 32.75 88.9375 C31.1825 86.648125 29.615 84.35875 28 82 C27.67 92.89 27.34 103.78 27 115 C18.09 115 9.18 115 0 115 C0 77.05 0 39.1 0 0 Z " fill="#000000" transform="translate(675,0)"/>
<path d="M0 0 C11.20478489 11.51430934 10.91753346 26.14918128 10.84375 41.28515625 C10.84233505 42.40159012 10.8409201 43.51802399 10.83946228 44.66828918 C10.83391742 48.19295059 10.82137555 51.71754568 10.80859375 55.2421875 C10.80357161 57.64908762 10.79900996 60.05598874 10.79492188 62.46289062 C10.78482202 68.32686829 10.76523624 74.1907047 10.74609375 80.0546875 C1.50609375 80.0546875 -7.73390625 80.0546875 -17.25390625 80.0546875 C-17.2796875 76.23777344 -17.30546875 72.42085938 -17.33203125 68.48828125 C-17.37047088 64.78141991 -17.41562521 61.07469676 -17.46142578 57.36791992 C-17.48960799 54.79669825 -17.51083612 52.22539038 -17.52490234 49.65405273 C-17.54636883 45.95251424 -17.5930419 42.2520091 -17.64453125 38.55078125 C-17.64575989 37.40572617 -17.64698853 36.26067108 -17.64825439 35.08091736 C-17.76752263 28.54495091 -18.29036944 24.33985757 -22.25390625 19.0546875 C-26.96619196 15.65745827 -31.63398849 15.31814532 -37.25390625 16.0546875 C-41.97269313 17.74632808 -44.45973442 19.91517368 -47.25390625 24.0546875 C-48.2521553 27.04943464 -48.40714657 29.12814084 -48.45922852 32.26049805 C-48.47917374 33.32137131 -48.49911896 34.38224457 -48.51966858 35.4752655 C-48.53638107 36.61909195 -48.55309357 37.7629184 -48.5703125 38.94140625 C-48.5910936 40.11355179 -48.61187469 41.28569733 -48.63328552 42.49336243 C-48.69874443 46.24291036 -48.75764921 49.99252913 -48.81640625 53.7421875 C-48.85959493 56.28190841 -48.90320933 58.82162212 -48.94726562 61.36132812 C-49.05522429 67.59237632 -49.15432553 73.82347719 -49.25390625 80.0546875 C-58.16390625 80.0546875 -67.07390625 80.0546875 -76.25390625 80.0546875 C-76.25390625 51.3446875 -76.25390625 22.6346875 -76.25390625 -6.9453125 C-67.34390625 -6.9453125 -58.43390625 -6.9453125 -49.25390625 -6.9453125 C-48.92390625 -3.3153125 -48.59390625 0.3146875 -48.25390625 4.0546875 C-47.28453125 2.9821875 -46.31515625 1.9096875 -45.31640625 0.8046875 C-33.29025701 -11.19716649 -12.62893775 -10.89984576 0 0 Z " fill="#000000" transform="translate(200.25390625,34.9453125)"/>
<path d="M0 0 C3.84269869 3.84269869 6.33895574 7.99675011 8.8125 12.8125 C9.15667969 13.47765625 9.50085938 14.1428125 9.85546875 14.828125 C13.29265192 23.02572617 11.8125 30.57014267 11.8125 39.8125 C-7.6575 39.8125 -27.1275 39.8125 -47.1875 39.8125 C-44.8556532 49.56068395 -44.8556532 49.56068395 -38.1875 54.8125 C-33.05202407 56.5030604 -28.7951581 55.87895024 -23.8828125 53.76953125 C-20.43507144 51.82322581 -19.40156028 49.45468083 -18.1875 45.8125 C-8.6175 45.8125 0.9525 45.8125 10.8125 45.8125 C9.36532015 55.94275896 5.66103574 63.04359282 -2.1875 69.8125 C-14.90121441 77.85992934 -27.25423457 80.14437495 -42.1875 77.8125 C-53.66212752 74.95345873 -62.13412799 68.89539801 -68.625 59 C-75.52546044 46.29376973 -76.10042445 31.30361021 -72.171875 17.53515625 C-70.64360373 13.30815197 -68.64586017 9.56595843 -66.1875 5.8125 C-65.61 4.925625 -65.0325 4.03875 -64.4375 3.125 C-46.75574019 -15.04791981 -19.69272353 -13.51461419 0 0 Z M-44 17.5625 C-46.75321394 21.14380611 -46.75321394 21.14380611 -47.1875 27.8125 C-36.6275 27.8125 -26.0675 27.8125 -15.1875 27.8125 C-16.0688308 19.22103846 -16.0688308 19.22103846 -21.1875 13.8125 C-28.95701626 9.06446228 -37.87889373 11.57741831 -44 17.5625 Z " fill="#000000" transform="translate(297.1875,37.1875)"/>
<path d="M0 0 C7.08567446 6.27542918 11.56594223 16.35177646 12.9296875 25.54296875 C8.89181555 25.74144624 4.8558453 25.88620389 0.81420898 25.98242188 C-0.55869 26.02253958 -1.93124948 26.07705461 -3.30297852 26.14648438 C-7.66071692 26.36144717 -11.78950177 26.43924882 -16.0703125 25.54296875 C-18.15461274 23.62838934 -19.06728981 22.08674671 -20.10668945 19.47070312 C-21.34398752 16.99548003 -22.52365244 16.50752925 -25.0703125 15.54296875 C-29.31332004 14.80381836 -33.33356042 14.62220439 -37.20703125 16.67578125 C-41.19190783 19.86702413 -42.78276874 22.53719114 -44.0703125 27.54296875 C-44.8208197 35.55419673 -45.46516217 44.02558824 -40.0703125 50.54296875 C-36.84548083 53.4746339 -34.37090903 54.77528762 -30.0703125 54.98046875 C-26.12761689 54.73969345 -23.34612334 53.85092639 -20.0703125 51.54296875 C-18.7503125 49.23296875 -17.4303125 46.92296875 -16.0703125 44.54296875 C-6.5003125 44.54296875 3.0696875 44.54296875 12.9296875 44.54296875 C10.20341578 56.81119149 6.25346253 65.12878057 -4.0703125 72.54296875 C-15.60036143 79.57860881 -28.74213331 80.81107783 -41.90234375 78.390625 C-52.46894731 75.56330937 -61.08387774 70.0654167 -66.8203125 60.6796875 C-73.92207191 47.24438786 -75.26049572 33.00579248 -71.0546875 18.265625 C-69.52641623 14.03862072 -67.52867267 10.29642718 -65.0703125 6.54296875 C-64.4928125 5.65609375 -63.9153125 4.76921875 -63.3203125 3.85546875 C-46.40844195 -13.52617598 -19.13230989 -13.46481432 0 0 Z " fill="#000000" transform="translate(649.0703125,36.45703125)"/>
<path d="M0 0 C9.24 0 18.48 0 28 0 C28 6.93 28 13.86 28 21 C33.61 21 39.22 21 45 21 C45 28.59 45 36.18 45 44 C39.39 44 33.78 44 28 44 C28.07389193 49.23358732 28.15661576 54.46542991 28.26245117 59.69824219 C28.2957484 61.47907542 28.32376531 63.26001541 28.34643555 65.04101562 C28.37989432 67.59811999 28.43220301 70.15424176 28.48828125 72.7109375 C28.49467117 73.50994476 28.5010611 74.30895203 28.50764465 75.13217163 C28.53954217 77.6129077 28.53954217 77.6129077 29 81 C32.52155964 83.34770643 34.50771843 83.37669614 38.6875 83.625 C41.8121875 83.810625 41.8121875 83.810625 45 84 C45 91.92 45 99.84 45 108 C18.0861244 108.59808612 18.0861244 108.59808612 8 101 C0.52220344 92.42616707 -0.17512945 81.43444639 -0.09765625 70.5625 C-0.0962413 69.79695801 -0.09482635 69.03141602 -0.09336853 68.24267578 C-0.08782853 65.82840858 -0.07528779 63.41423856 -0.0625 61 C-0.05747723 59.35026177 -0.05291569 57.70052206 -0.04882812 56.05078125 C-0.03787886 52.03381745 -0.02065666 48.01692513 0 44 C-3.63 44 -7.26 44 -11 44 C-11 36.41 -11 28.82 -11 21 C-7.37 21 -3.74 21 0 21 C0 14.07 0 7.14 0 0 Z " fill="#000000" transform="translate(418,7)"/>
</svg>